<svg class="fill-current transition-colors" xmlns="http://www.w3.org/2000/svg" viewBox="0 0 380.94 208.35"><path fill="#fff" d="M190.33,12.53v81.86h8.56c-6.09-14.68-7.52-55.26-8.56-81.86"></path><path fill="#fff" d="M190.33,12.53v81.86h-8.56c6.09-14.68,7.52-55.26,8.56-81.86"></path><path fill="#fff" d="M207.44,35.82v58.57h6.12c-4.35-10.5-5.38-39.54-6.12-58.57"></path><path fill="#fff" d="M207.44,35.82v58.57h-6.12c4.35-10.5,5.38-39.54,6.12-58.57"></path><path fill="#fff" d="M220.79,43.59v50.8h4.06c-2.89-9.11-3.57-34.3-4.06-50.8"></path><path fill="#fff" d="M220.79,43.59v50.8h-4.06c2.89-9.11,3.57-34.3,4.06-50.8"></path><path fill="#fff" d="M173.21,35.82v58.57h-6.12c4.35-10.5,5.38-39.54,6.12-58.57"></path><path fill="#fff" d="M173.21,35.82v58.57h6.12c-4.36-10.5-5.38-39.54-6.12-58.57"></path><path fill="#fff" d="M159.86,43.59v50.8h-4.06c2.89-9.11,3.57-34.3,4.06-50.8"></path><path fill="#fff" d="M159.86,43.59v50.8h4.06c-2.89-9.11-3.57-34.3-4.06-50.8"></path><polygon fill="#fff" points="193.13 6.27 190.33 12.53 187.52 6.27 190.33 0 193.13 6.27"></polygon><polygon fill="#fff" points="209.8 30.54 207.44 35.82 205.07 30.54 207.44 25.26 209.8 30.54"></polygon><polygon fill="#fff" points="222.58 39.6 220.79 43.59 219 39.6 220.79 35.61 222.58 39.6"></polygon><polygon fill="#fff" points="170.85 30.54 173.21 35.82 175.58 30.54 173.21 25.26 170.85 30.54"></polygon><polygon fill="#fff" points="158.07 39.6 159.86 43.59 161.65 39.6 159.86 35.61 158.07 39.6"></polygon><path fill="#fff" d="M41.43,171.02h-4.29c-.61-6.86-1.66-17.96-3.14-33.32l.06-.69-13.94,34.86h-.46l-14.06-35.26-4,34.4-1.6-.06,4.29-35.72-.11-2.69h4.17l1.49,3.89c1.87,4.88,5.64,14.13,11.31,27.77,0,.31.02.63.06.97l13.09-32.63h3.26l3.89,38.46Z"></path><path fill="#fff" d="M79.2,171.02h-4.91c-1.37-3.81-3.09-8.31-5.14-13.49h-15.31l-5.6,13.49h-1.66l16.12-39.03h.51c.27.84.74,2.19,1.43,4.06,4.3,10.74,9.16,22.4,14.57,34.97ZM68.46,155.88l-6.92-17.14v-.69l-7.09,17.83h14Z"></path><path fill="#fff" d="M108.41,169.08l-.69,1.94h-22.23v-38.46h4.34l.06,36.86c10.59.08,16.76-.04,18.52-.34Z"></path><path fill="#fff" d="M135.89,169.08l-.69,1.94h-22.23v-38.46h4.34l.06,36.86c10.59.08,16.76-.04,18.52-.34Z"></path><path fill="#fff" d="M218.44,171.02h-5.03c-3.51-5.79-6.91-11.58-10.23-17.37h-4.06l.46-.46c3.35,0,6.08-.99,8.17-2.97,1.98-1.9,2.97-4.27,2.97-7.09,0-2.48-.88-4.53-2.63-6.17-2.02-1.87-4.84-2.8-8.46-2.8-.53,0-1.07.02-1.6.06l-.29.34v36.46h-4.34v-38.46h8.4c4.19,0,7.47,1.05,9.83,3.14,2.09,1.91,3.14,4.25,3.14,7.03,0,5.33-2.46,8.78-7.37,10.34,1.79,3.39,5.47,9.37,11.03,17.94Z"></path><path fill="#fff" d="M254.5,171.02h-4.91c-1.37-3.81-3.09-8.31-5.14-13.49h-15.31l-5.6,13.49h-1.66l16.12-39.03h.51c.27.84.74,2.19,1.43,4.06,4.3,10.74,9.16,22.4,14.57,34.97ZM243.76,155.88l-6.92-17.14v-.69l-7.09,17.83h14Z"></path><path fill="#fff" d="M289.65,171.71c-2.55-2.78-12.08-14.13-28.57-34.06l.4,1.26v32.12h-1.83l-.34-38.46h2.46c1.45,1.98,10.02,12.23,25.72,30.74l.4.97c0-17.11-.04-27.68-.11-31.72h1.83c0,24.61.02,37.66.06,39.15Z"></path><path fill="#fff" d="M330.33,165.14l-.57,3.6c-4.53,1.91-9.03,2.86-13.49,2.86-5.41,0-10.04-1.62-13.89-4.86-4.31-3.58-6.46-8.36-6.46-14.34,0-5.64,1.77-10.36,5.31-14.17,3.73-4.04,8.59-6.06,14.57-6.06,5.45,0,10.25,1.52,14.4,4.57l-1.37,3.66c-1.64-2.55-3.52-4.32-5.66-5.31-1.71-.76-3.87-1.14-6.46-1.14-5.03,0-9.03,1.98-12,5.94-2.63,3.51-3.94,7.68-3.94,12.51,0,5.37,1.58,9.66,4.74,12.86,3.16,3.2,7.2,4.8,12.12,4.8,2.06,0,4.29-.47,6.69-1.4,2.4-.93,4.4-2.1,6-3.51Z"></path><path fill="#fff" d="M366.17,171.02h-4.29v-18.57h-20.52c0,3.01.02,5.87.06,8.57v10h-4.23c0-27.58.02-40.4.06-38.46h4.17v18.23h20.46v-18.23h4.29v38.46Z"></path><path fill="#fff" d="M379.65,171.02h-4.34c0-27.35.02-40.17.06-38.46h4.23l.06,38.46Z"></path><path fill="#fff" d="M168.54,149.49c-.47.69-1.04,1.24-1.72,1.64-.68.41-1.39.61-2.12.61s-1.36-.16-1.94-.48c-.58-.32-1.05-.69-1.42-1.13h-.08c-.05.97-.3,2-.76,3.1-.45,1.1-1.06,2.1-1.82,3.02-.76.92-1.65,1.68-2.67,2.29s-2.12.92-3.32.92c-1.1,0-1.99-.32-2.69-.96-.7-.64-1.16-1.49-1.38-2.56-.12-.56-.12-1.21,0-1.95.12-.74.35-1.48.69-2.24.34-.75.77-1.49,1.29-2.22.52-.73,1.11-1.38,1.78-1.95s1.4-1.03,2.21-1.38c.81-.34,1.65-.52,2.55-.52,1.05,0,1.92.31,2.62.92.7.61,1.18,1.4,1.44,2.37.18.59.56,1.13,1.17,1.62.6.5,1.34.75,2.2.75.76,0,1.44-.19,2.04-.57.59-.38,1.12-.88,1.58-1.49l.35.19ZM150.88,156.87c.14.66.38,1.18.72,1.57.34.38.76.57,1.27.57.69,0,1.33-.18,1.93-.55.6-.37,1.14-.85,1.64-1.45.5-.6.93-1.28,1.3-2.05.37-.76.67-1.55.89-2.37.22-.82.36-1.61.43-2.39.06-.78.03-1.48-.11-2.12-.11-.54-.34-.99-.69-1.36s-.8-.55-1.36-.55-1.07.17-1.61.52c-.54.34-1.06.8-1.56,1.36-.51.56-.96,1.21-1.36,1.95-.4.74-.74,1.5-1.02,2.29-.28.79-.46,1.58-.55,2.37-.09.79-.06,1.53.09,2.22Z"></path><path fill="#fff" d="M166.57,146.47l-.1-.46h2.94c.66-1.58,1.34-3.17,2.04-4.78.7-1.61,1.49-3.05,2.36-4.34.87-1.29,1.85-2.33,2.93-3.13,1.08-.8,2.3-1.2,3.68-1.2.81,0,1.51.17,2.1.52.58.34.95.87,1.1,1.59.13.61.05,1.11-.25,1.51-.3.4-.74.62-1.31.67.03-.36.04-.69.03-1.01,0-.32-.05-.69-.14-1.13-.11-.51-.32-.92-.62-1.22s-.75-.46-1.34-.46c-.94,0-1.81.43-2.61,1.28-.8.85-1.54,1.93-2.22,3.23s-1.31,2.71-1.89,4.22c-.58,1.52-1.14,2.94-1.67,4.26h8.64l.1.46h-8.87c-1.56,4.18-2.99,7.76-4.29,10.74s-2.64,5.43-4.02,7.34c-1.38,1.91-2.86,3.31-4.46,4.2s-3.47,1.34-5.64,1.34c-.76,0-1.52-.1-2.26-.29-.74-.19-1.42-.48-2.04-.86-.62-.38-1.15-.86-1.6-1.43s-.76-1.24-.92-2.01c-.21-.99-.08-1.84.4-2.54.48-.7,1.45-1.05,2.93-1.05h.34l.07.31c-.75.05-1.34.34-1.76.88-.42.53-.53,1.27-.33,2.22.28,1.32.87,2.38,1.78,3.15.9.78,2.07,1.17,3.5,1.17s2.62-.31,3.74-.94c1.12-.62,2.14-1.48,3.06-2.58.93-1.1,1.79-2.38,2.58-3.86.79-1.48,1.56-3.08,2.31-4.8.74-1.72,1.48-3.52,2.2-5.39s1.47-3.74,2.25-5.6h-2.71Z"></path><path fill="#fff" d="M147.06,201.49l-.74.03c-.26,0-.39-.1-.39-.31,0-.12.04-.22.11-.3.07-.08.2-.2.39-.35.31-.26.58-.53.8-.81.22-.28.38-.65.49-1.1l2.71-12.74c.04-.21.05-.36.05-.45,0-.39-.1-.69-.32-.92-.21-.23-.49-.46-.84-.68-.21-.14-.36-.25-.46-.33-.1-.08-.14-.17-.14-.28,0-.21.12-.31.37-.31l.74.03c.42.05.92.08,1.5.08h.18c.63,0,1.16-.03,1.6-.08l.74-.03c.26,0,.39.1.39.31,0,.1-.04.21-.12.3-.08.1-.21.21-.38.35-.32.25-.59.51-.81.79-.23.28-.39.66-.47,1.13l-1.47,6.94,6.38-6.86c.25-.25.37-.49.37-.74,0-.23-.09-.43-.26-.6-.18-.18-.43-.39-.76-.63-.18-.12-.33-.25-.47-.37s-.21-.23-.21-.32c0-.21.1-.31.29-.31l.6.05c.19,0,.5.02.92.05,1.02-.04,1.72-.05,2.13-.05l1.44-.05c.21,0,.38.03.5.08s.18.12.18.21c0,.12-.09.25-.28.39-.18.14-.49.32-.91.55-.93.49-1.59.95-1.97,1.37l-4.26,4.55,3.05,8.49c.16.47.42.85.78,1.14.36.29.79.56,1.3.83.3.16.51.28.63.37.12.09.18.19.18.32,0,.21-.21.31-.63.31l-1.21-.03c-.74-.05-1.59-.08-2.55-.08-.46,0-.87.03-1.23.08l-.55.03c-.19,0-.29-.1-.29-.31,0-.11.04-.2.12-.28.08-.08.21-.19.41-.33.3-.21.53-.41.7-.6.17-.19.25-.45.25-.76,0-.19-.04-.39-.1-.6l-2.42-6.83-2.52,2.65-.87,4.1c-.04.21-.05.36-.05.45,0,.39.1.69.31.92.21.23.49.46.84.68.21.14.36.25.46.33.1.08.14.17.14.28,0,.21-.12.31-.37.31l-.74-.03c-.42-.05-.92-.08-1.5-.08h-.16c-.61,0-1.15.03-1.6.08Z"></path><path fill="#fff" d="M163.22,201.41c-.28-.28-.42-.67-.42-1.16,0-.21.03-.43.08-.66l2.08-8.8c.17-.7.26-1.21.26-1.52,0-.3-.1-.45-.31-.45-.18,0-.43.18-.78.54-.34.36-.71.85-1.09,1.48l-.29-.16c.39-.74.88-1.39,1.48-1.97.6-.58,1.22-.87,1.85-.87.33,0,.58.07.75.21s.25.39.25.76c0,.28-.05.65-.16,1.1l-2.26,9.51c-.05.23-.08.42-.08.58,0,.49.18.74.55.74.42,0,1.01-.64,1.77-1.93.76-1.29,1.57-2.9,2.42-4.85.85-1.94,1.58-3.84,2.19-5.7h1.92l-2.65,11.24c-.09.44-.13.74-.13.92,0,.44.15.66.45.66.21,0,.45-.17.72-.51.27-.34.6-.88.99-1.62l.29.16c-.44.88-.85,1.55-1.22,2.01-.38.46-.84.7-1.38.7-.44,0-.8-.13-1.08-.39s-.42-.67-.42-1.23c0-.25.04-.57.13-.97l1.6-6.91h-.18c-1.26,3.17-2.38,5.55-3.35,7.13-.97,1.59-1.94,2.38-2.9,2.38-.44,0-.8-.14-1.08-.42Z"></path><path fill="#fff" d="M176.37,201.21c-.6-.41-1.09-.99-1.45-1.75-.36-.75-.54-1.63-.54-2.63,0-1.54.29-3,.88-4.39.59-1.38,1.42-2.5,2.5-3.34s2.31-1.26,3.69-1.26c.7,0,1.31.11,1.84.33.53.22.93.5,1.21.85.28.35.42.71.42,1.08s-.1.64-.29.87c-.19.23-.44.34-.74.34-.37,0-.62-.11-.75-.33-.13-.22-.25-.56-.35-1.01-.1-.56-.26-.98-.46-1.27-.2-.29-.59-.43-1.17-.43-1.02,0-1.9.36-2.65,1.09-.75.73-1.33,1.66-1.73,2.8-.4,1.14-.6,2.3-.6,3.49,0,1.59.34,2.79,1.01,3.59.67.8,1.48,1.2,2.43,1.2,1.31,0,2.46-.8,3.44-2.39l.21.16c-.19.53-.52,1.06-.97,1.62-.46.55-1.02,1.02-1.69,1.42s-1.41.59-2.22.59c-.74,0-1.41-.21-2.01-.62Z"></path><path fill="#fff" d="M188.84,184.83c0-.26-.11-.46-.34-.59s-.6-.21-1.13-.22c-.12,0-.22-.02-.29-.05-.07-.04-.1-.08-.1-.13,0-.1.11-.18.34-.24.32-.09.62-.19.92-.31,1.4-.49,2.25-.71,2.55-.66.1.02.18.07.22.16.04.09.03.18-.04.29l.05-.05-3.05,14.34h.11c.82-2.21,1.52-3.96,2.09-5.27.57-1.3,1.15-2.34,1.73-3.1.59-.76,1.19-1.14,1.8-1.14.84,0,1.26.43,1.26,1.29,0,.25-.04.56-.13.95l-2.23,9.43c-.09.44-.13.74-.13.92,0,.44.15.66.45.66.21,0,.45-.17.72-.51.27-.34.6-.88.98-1.62l.29.16c-.44.88-.85,1.55-1.22,2.01-.38.46-.84.7-1.38.7-.44,0-.8-.13-1.08-.38-.28-.25-.42-.66-.42-1.22,0-.23.04-.56.13-1l2.15-9.22c.05-.21.08-.39.08-.55,0-.35-.14-.53-.42-.53-.54,0-1.31,1.19-2.31,3.57s-2.08,5.22-3.26,8.51l-.08.39h-1.76l3.47-16.29c.02-.07.03-.17.03-.29Z"></path><path fill="#fff" d="M200.21,200.84c.14-.11.36-.26.66-.43.46-.28.84-.55,1.14-.81.31-.26.57-.59.8-.97l7.01-12.74c.12-.23.18-.45.18-.66,0-.3-.1-.55-.32-.75-.21-.2-.51-.41-.89-.62-.18-.11-.33-.21-.47-.33-.14-.11-.21-.21-.21-.3,0-.21.13-.31.39-.31l.68.03c.46.05.96.08,1.52.08h1.39l2.31,15.53c.07.51.24.91.5,1.2s.6.56,1.02.83c.21.12.36.23.46.33.1.1.14.2.14.3s-.04.18-.13.24c-.09.05-.2.08-.34.08l-.87-.03c-.54-.05-1.17-.08-1.89-.08-.6,0-1.1.03-1.52.08l-.71.03c-.25,0-.37-.1-.37-.31,0-.11.04-.2.13-.28.09-.08.24-.19.45-.33.38-.25.69-.51.91-.8.22-.29.29-.68.22-1.17l-.55-3.55h-6.07l-1.89,3.47c-.12.23-.18.45-.18.66,0,.3.11.54.32.74.21.19.5.4.87.63.17.1.33.21.47.33.14.11.21.21.21.3,0,.21-.12.31-.37.31l-.66-.03-1.08-.08c-.84.03-1.42.05-1.73.05l-1.16.05c-.4,0-.6-.1-.6-.31,0-.12.07-.24.21-.35ZM211.77,194.42l-1.23-7.96-4.36,7.96h5.6Z"></path><path fill="#fff" d="M217.11,206.59c0-.05.13-.18.38-.37.25-.19.48-.41.68-.66s.35-.56.43-.95l2.92-13.77c.16-.72.24-1.21.24-1.47,0-.33-.11-.5-.34-.5-.18,0-.43.18-.76.55-.33.37-.68.87-1.05,1.5l-.29-.13c.37-.77.84-1.45,1.43-2.05.59-.6,1.2-.89,1.83-.89.35,0,.61.07.77.22.17.15.25.42.25.8,0,.35-.04.7-.13,1.05l-.42,1.94h.08c.4-1.09.98-2.03,1.73-2.82.75-.8,1.59-1.2,2.52-1.2,1.1,0,1.95.39,2.55,1.16.6.77.89,1.82.89,3.15,0,1.84-.33,3.5-.99,4.98s-1.49,2.63-2.51,3.45-2.04,1.23-3.07,1.23c-.75,0-1.35-.14-1.79-.42s-.84-.67-1.21-1.18l-.92,4.39c-.04.17-.05.31-.05.39,0,.3.07.54.2.74.13.19.29.37.49.53s.29.26.29.32-.11.08-.34.08h-3.47c-.23,0-.34-.03-.34-.08ZM221.81,198.39c0,.91.21,1.64.64,2.18.43.54.95.81,1.56.81.86,0,1.67-.43,2.43-1.3.76-.87,1.38-2.01,1.84-3.42.46-1.41.7-2.86.7-4.35,0-1.28-.16-2.26-.47-2.96-.32-.69-.77-1.04-1.37-1.04s-1.23.38-1.9,1.13c-.67.75-1.28,1.67-1.83,2.76s-.9,2.08-1.08,3l-.39,1.97c-.09.49-.13.89-.13,1.21Z"></path><path fill="#fff" d="M234.66,189.38c0-.33-.11-.5-.34-.5-.18,0-.43.18-.76.55-.33.37-.68.87-1.05,1.5l-.29-.13c.37-.77.84-1.45,1.43-2.05.59-.6,1.2-.89,1.83-.89.35,0,.61.07.77.22.17.15.25.43.25.83,0,.21-.04.55-.13,1.02l-1.58,7.44h.13c.82-2.21,1.52-3.96,2.09-5.27.57-1.3,1.15-2.34,1.73-3.1.59-.76,1.19-1.14,1.8-1.14.84,0,1.26.43,1.26,1.29,0,.25-.04.56-.13.95l-2.23,9.43c-.09.44-.13.74-.13.92,0,.44.15.66.45.66.21,0,.45-.17.72-.51.27-.34.6-.88.98-1.62l.29.16c-.44.88-.85,1.55-1.22,2.01-.38.46-.84.7-1.38.7-.44,0-.8-.13-1.08-.38-.28-.25-.42-.66-.42-1.22,0-.23.04-.56.13-1l2.15-9.22c.05-.21.08-.39.08-.55,0-.35-.14-.53-.42-.53-.91,0-2.78,4.1-5.62,12.3l-.05.18h-1.73l2.23-10.56c.16-.72.24-1.21.24-1.47Z"></path><path fill="#fff" d="M244.53,201.21c-.46-.41-.81-.98-1.08-1.71-.26-.73-.39-1.55-.39-2.46,0-1.89.31-3.53.92-4.93.61-1.39,1.38-2.45,2.29-3.18.91-.73,1.8-1.09,2.65-1.09,1.56,0,2.46.77,2.71,2.31l.1.03.24-1.05,1.79-.87.13.16-2.63,11.09c-.09.44-.13.74-.13.92,0,.44.15.66.45.66.21,0,.45-.17.72-.51.27-.34.6-.88.99-1.62l.29.16c-.44.88-.85,1.55-1.22,2.01-.38.46-.84.7-1.38.7-.44,0-.8-.13-1.08-.38-.28-.25-.42-.66-.42-1.22,0-.1.02-.3.05-.58h-.16c-.44.77-.95,1.33-1.52,1.67-.58.34-1.17.51-1.79.51-.56,0-1.07-.21-1.52-.62ZM245.45,199.96c.33.67.78,1,1.34,1s1.18-.37,1.81-1.1c.63-.74,1.12-1.64,1.47-2.71l.63-2.65c.17-1.23.26-2.22.26-3,0-2.15-.65-3.23-1.94-3.23-.47,0-1.03.38-1.68,1.13-.65.75-1.21,1.83-1.68,3.24-.47,1.41-.71,3.04-.71,4.9,0,.95.17,1.75.5,2.42Z"></path><path fill="#fff" d="M262.21,201.45c-.82-.24-1.48-.54-1.96-.91-.48-.37-.71-.72-.7-1.05l.21-3.13c.03-.23.05-.43.05-.6,0-.14.06-.21.18-.21.07,0,.14.07.21.22.07.15.16.39.26.72.3.81.6,1.51.92,2.12.31.6.81,1.15,1.48,1.64.67.49,1.54.74,2.59.74.96,0,1.78-.21,2.46-.63.67-.42,1.18-.95,1.52-1.58.34-.63.51-1.26.51-1.89,0-.67-.29-1.27-.85-1.81-.57-.54-1.45-1.2-2.64-1.97-1-.67-1.79-1.23-2.36-1.68s-1.07-.99-1.48-1.62c-.41-.62-.62-1.32-.62-2.09,0-1.03.31-1.94.93-2.71.62-.77,1.45-1.37,2.47-1.79,1.02-.42,2.14-.63,3.35-.63.82,0,1.56.08,2.22.25.66.17,1.16.38,1.52.63.36.25.53.51.51.78l-.16,3.28c0,.12-.05.18-.16.18-.09,0-.17-.08-.24-.25-.07-.17-.15-.36-.24-.59-.25-.65-.5-1.21-.76-1.68-.26-.47-.67-.9-1.21-1.27-.54-.38-1.23-.56-2.08-.56-.91,0-1.69.17-2.34.51-.65.34-1.13.78-1.46,1.31-.32.53-.49,1.07-.49,1.62s.17,1.02.51,1.48c.34.46.76.88,1.26,1.23.5.36,1.18.81,2.04,1.35.95.58,1.7,1.08,2.26,1.51.56.43,1.04.92,1.43,1.48s.59,1.18.59,1.87c0,1.14-.3,2.17-.91,3.09-.6.92-1.44,1.65-2.52,2.18s-2.29.8-3.64.8c-.98,0-1.88-.12-2.71-.35Z"></path><path fill="#fff" d="M274.43,201.21c-.46-.41-.81-.98-1.08-1.71-.26-.73-.39-1.55-.39-2.46,0-1.89.31-3.53.92-4.93.61-1.39,1.38-2.45,2.29-3.18.91-.73,1.8-1.09,2.65-1.09,1.56,0,2.46.77,2.71,2.31l.1.03.24-1.05,1.79-.87.13.16-2.63,11.09c-.09.44-.13.74-.13.92,0,.44.15.66.45.66.21,0,.45-.17.72-.51.27-.34.6-.88.99-1.62l.29.16c-.44.88-.85,1.55-1.22,2.01-.38.46-.84.7-1.38.7-.44,0-.8-.13-1.08-.38-.28-.25-.42-.66-.42-1.22,0-.1.02-.3.05-.58h-.16c-.44.77-.95,1.33-1.52,1.67-.58.34-1.17.51-1.79.51-.56,0-1.07-.21-1.52-.62ZM275.35,199.96c.33.67.78,1,1.34,1s1.18-.37,1.81-1.1c.63-.74,1.12-1.64,1.47-2.71l.63-2.65c.17-1.23.26-2.22.26-3,0-2.15-.65-3.23-1.94-3.23-.47,0-1.03.38-1.68,1.13-.65.75-1.21,1.83-1.68,3.24-.47,1.41-.71,3.04-.71,4.9,0,.95.17,1.75.5,2.42Z"></path><path fill="#fff" d="M289.33,201.49l-.71.03c-.21,0-.32-.08-.32-.24,0-.12.05-.23.14-.32.1-.09.27-.21.51-.37.44-.28.79-.56,1.05-.84.26-.28.46-.68.58-1.21l2.86-12.74c.03-.12.05-.3.05-.53,0-.33-.07-.6-.21-.81-.14-.21-.33-.42-.58-.63-.1-.09-.2-.18-.28-.28-.08-.1-.12-.19-.12-.28,0-.12.04-.21.12-.28.08-.06.19-.09.33-.09l.68.03c.42.05.93.08,1.52.08h.18c.6,0,1.11-.03,1.55-.08l.71-.03c.19,0,.29.08.29.24,0,.12-.05.23-.14.31-.1.09-.27.21-.51.37-.44.28-.79.56-1.05.84s-.46.68-.58,1.21l-3.31,14.87h5.25c.56,0,1.09-.23,1.59-.68.5-.46,1.03-1.06,1.59-1.81.31-.42.55-.71.7-.87s.28-.24.41-.24c.04,0,.07.02.09.07.03.04.03.1.01.17-.05.3-.26.83-.63,1.6-.37.79-.6,1.38-.68,1.79-.07.25-.15.41-.25.5-.1.09-.22.13-.38.13h-8.96c-.6,0-1.1.03-1.52.08Z"></path><path fill="#fff" d="M304.43,201.21c-.46-.41-.81-.98-1.08-1.71-.26-.73-.39-1.55-.39-2.46,0-1.89.31-3.53.92-4.93.61-1.39,1.38-2.45,2.29-3.18.91-.73,1.8-1.09,2.65-1.09,1.56,0,2.46.77,2.71,2.31l.1.03.24-1.05,1.79-.87.13.16-2.63,11.09c-.09.44-.13.74-.13.92,0,.44.15.66.45.66.21,0,.45-.17.72-.51.27-.34.6-.88.99-1.62l.29.16c-.44.88-.85,1.55-1.22,2.01-.38.46-.84.7-1.38.7-.44,0-.8-.13-1.08-.38-.28-.25-.42-.66-.42-1.22,0-.1.02-.3.05-.58h-.16c-.44.77-.95,1.33-1.52,1.67-.58.34-1.17.51-1.79.51-.56,0-1.07-.21-1.52-.62ZM305.35,199.96c.33.67.78,1,1.34,1s1.18-.37,1.81-1.1c.63-.74,1.12-1.64,1.47-2.71l.63-2.65c.17-1.23.26-2.22.26-3,0-2.15-.65-3.23-1.94-3.23-.47,0-1.03.38-1.68,1.13-.65.75-1.21,1.83-1.68,3.24-.47,1.41-.71,3.04-.71,4.9,0,.95.17,1.75.5,2.42Z"></path><path fill="#fff" d="M313.3,207.75c-.66-.39-.99-.95-.99-1.67s.35-1.49,1.06-2.22c.71-.73,1.54-1.29,2.48-1.69-.95-.21-1.42-.63-1.42-1.26,0-.44.19-.86.56-1.26.38-.4,1.02-.82,1.93-1.26-.49-.33-.88-.81-1.18-1.44-.3-.63-.45-1.38-.45-2.26,0-.82.22-1.78.66-2.86s1.07-2.02,1.89-2.8c.82-.78,1.77-1.17,2.84-1.17h.03c.37,0,.77.04,1.21.13.63.1,1.24.16,1.84.16.47,0,.97-.06,1.5-.18.19-.05.37-.08.53-.08.12,0,.18.06.18.18,0,.31-.15.6-.46.85-.31.25-.68.38-1.12.38-.35,0-.64-.04-.87-.13-.23-.09-.49-.22-.79-.39.37.37.66.82.87,1.37.21.54.32,1.16.32,1.84,0,.96-.25,1.99-.74,3.07-.49,1.09-1.15,1.99-1.98,2.72-.83.73-1.73,1.09-2.69,1.09-.4,0-.78-.08-1.13-.24-.46.21-.76.4-.92.58-.16.18-.24.38-.24.6s.19.37.56.42c.38.05,1.02.09,1.93.1,1.02,0,1.87.04,2.57.12.7.08,1.3.28,1.81.59.51.31.76.81.76,1.47,0,.95-.4,1.87-1.2,2.77-.8.9-1.8,1.64-3.02,2.21-1.22.57-2.43.85-3.64.85s-2.06-.2-2.72-.59ZM317.1,207.43c.81,0,1.69-.22,2.65-.66s1.78-.98,2.44-1.64c.67-.66,1-1.29,1-1.9,0-.35-.27-.58-.8-.68-.53-.11-1.34-.16-2.43-.16h-1.21c-.81,0-1.39-.02-1.76-.05-.51.1-.97.34-1.39.7-.42.36-.75.76-.99,1.21-.24.45-.35.87-.35,1.27,0,1.28.95,1.92,2.84,1.92ZM317.48,197.63c.29.54.7.81,1.22.81.77,0,1.42-.46,1.94-1.38s.92-1.96,1.17-3.11c.25-1.16.38-2.06.38-2.71,0-.88-.14-1.59-.43-2.14-.29-.55-.69-.83-1.2-.83-.77,0-1.42.45-1.94,1.34s-.92,1.92-1.18,3.07c-.26,1.16-.39,2.08-.39,2.79,0,.89.14,1.61.43,2.15Z"></path><path fill="#fff" d="M325.69,201.4c-.31-.29-.47-.75-.47-1.38,0-.35.05-.74.16-1.18l2.36-9.41c.05-.24,0-.42-.13-.51-.14-.1-.35-.17-.63-.24-.28-.06-.42-.14-.42-.22,0-.07.07-.12.21-.14.14-.03.39-.04.76-.04.23,0,.44-.14.63-.41.19-.27.44-.69.74-1.25.25-.46.44-.8.59-1.02s.3-.34.46-.34c.09,0,.13.06.13.18,0,.1,0,.19-.03.26l-.58,2.57h2.57v.55c0,.47-.13.71-.39.71-.12,0-.23-.05-.33-.14-.1-.1-.15-.15-.17-.17-.14-.16-.28-.28-.43-.38s-.34-.14-.56-.14h-.76l-2.42,10.93c-.07.28-.1.53-.1.74,0,.49.21.74.63.74.32,0,.68-.2,1.09-.6.41-.4.78-.9,1.12-1.5l.29.1c-.26.56-.67,1.16-1.21,1.79s-1.15.95-1.81.95c-.54,0-.97-.14-1.29-.43Z"></path><path fill="#fff" d="M333.28,201.21c-.46-.41-.81-.98-1.08-1.71-.26-.73-.39-1.55-.39-2.46,0-1.89.31-3.53.92-4.93.61-1.39,1.38-2.45,2.29-3.18.91-.73,1.8-1.09,2.65-1.09,1.56,0,2.46.77,2.71,2.31l.1.03.24-1.05,1.79-.87.13.16-2.63,11.09c-.09.44-.13.74-.13.92,0,.44.15.66.45.66.21,0,.45-.17.72-.51.27-.34.6-.88.99-1.62l.29.16c-.44.88-.85,1.55-1.22,2.01-.38.46-.84.7-1.38.7-.44,0-.8-.13-1.08-.38-.28-.25-.42-.66-.42-1.22,0-.1.02-.3.05-.58h-.16c-.44.77-.95,1.33-1.52,1.67-.58.34-1.17.51-1.79.51-.56,0-1.07-.21-1.52-.62ZM334.2,199.96c.33.67.78,1,1.34,1s1.18-.37,1.81-1.1c.63-.74,1.12-1.64,1.47-2.71l.63-2.65c.17-1.23.26-2.22.26-3,0-2.15-.65-3.23-1.94-3.23-.47,0-1.03.38-1.68,1.13-.65.75-1.21,1.83-1.68,3.24-.47,1.41-.71,3.04-.71,4.9,0,.95.17,1.75.5,2.42Z"></path><path fill="#fff" d="M348.18,201.49l-.71.03c-.21,0-.32-.08-.32-.24,0-.14.06-.26.17-.35s.28-.21.51-.33c.44-.28.78-.56,1.04-.83.25-.27.44-.65.56-1.14l2.84-12.74c.05-.21.08-.4.08-.58,0-.35-.07-.63-.21-.84-.14-.21-.33-.42-.58-.63-.1-.09-.2-.18-.28-.28-.08-.1-.12-.19-.12-.28,0-.12.04-.21.12-.28.08-.06.19-.09.33-.09l.68.03c.42.05.93.08,1.52.08h.18c.6,0,1.11-.03,1.55-.08l.71-.03c.19,0,.29.08.29.24,0,.12-.05.24-.16.34-.11.1-.27.22-.5.34-.42.26-.76.53-1.02.81s-.46.67-.58,1.16l-1.34,5.91h6.52l1.29-5.83c.05-.21.08-.4.08-.58,0-.35-.07-.63-.21-.84-.14-.21-.33-.42-.58-.63-.11-.09-.2-.18-.28-.28-.08-.1-.12-.19-.12-.28,0-.12.04-.21.12-.28.08-.06.19-.09.33-.09l.68.03c.42.05.93.08,1.52.08h.18c.6,0,1.11-.03,1.55-.08l.71-.03c.19,0,.29.08.29.24,0,.12-.05.24-.16.34s-.27.22-.5.34c-.42.26-.76.53-1.02.81s-.46.67-.58,1.16l-2.86,12.74c-.05.21-.08.4-.08.58,0,.35.07.63.21.84.14.21.33.42.58.63.11.09.2.18.28.26.08.09.12.18.12.26,0,.26-.15.39-.45.39l-.68-.03c-.42-.05-.92-.08-1.5-.08h-.21c-.6,0-1.1.03-1.52.08l-.71.03c-.21,0-.32-.08-.32-.24,0-.14.06-.26.17-.35.11-.1.28-.21.51-.33.44-.28.78-.56,1.04-.83.25-.27.44-.65.56-1.14l1.39-6.25h-6.49l-1.39,6.17c-.05.21-.08.4-.08.58,0,.35.07.63.21.84.14.21.33.42.58.63.1.09.2.18.28.26.08.09.12.18.12.26,0,.26-.15.39-.45.39l-.68-.03c-.42-.05-.92-.08-1.5-.08h-.21c-.6,0-1.1.03-1.52.08Z"></path><path fill="#fff" d="M364.7,201.21c-.46-.41-.81-.98-1.08-1.71-.26-.73-.39-1.55-.39-2.46,0-1.89.31-3.53.92-4.93.61-1.39,1.38-2.45,2.29-3.18.91-.73,1.8-1.09,2.65-1.09,1.56,0,2.46.77,2.71,2.31l.1.03.24-1.05,1.79-.87.13.16-2.63,11.09c-.09.44-.13.74-.13.92,0,.44.15.66.45.66.21,0,.45-.17.72-.51.27-.34.6-.88.99-1.62l.29.16c-.44.88-.85,1.55-1.22,2.01-.38.46-.84.7-1.38.7-.44,0-.8-.13-1.08-.38-.28-.25-.42-.66-.42-1.22,0-.1.02-.3.05-.58h-.16c-.44.77-.95,1.33-1.52,1.67-.58.34-1.17.51-1.79.51-.56,0-1.07-.21-1.52-.62ZM365.62,199.96c.33.67.78,1,1.34,1s1.18-.37,1.81-1.1c.63-.74,1.12-1.64,1.47-2.71l.63-2.65c.17-1.23.26-2.22.26-3,0-2.15-.65-3.23-1.94-3.23-.47,0-1.03.38-1.68,1.13-.65.75-1.21,1.83-1.68,3.24-.47,1.41-.71,3.04-.71,4.9,0,.95.17,1.75.5,2.42Z"></path><path fill="#fff" d="M377.29,200.44c0,.44.15.66.45.66.21,0,.45-.17.72-.51.27-.34.6-.88.99-1.62l.29.16c-.44.88-.85,1.55-1.22,2.01-.38.46-.84.7-1.38.7-.44,0-.8-.13-1.08-.38-.28-.25-.42-.66-.42-1.22,0-.23.04-.56.13-1l1.97-8.43c.17-.7.26-1.2.26-1.5,0-.16-.03-.27-.08-.34-.05-.07-.13-.11-.24-.13-.18,0-.43.18-.78.54-.34.36-.71.85-1.09,1.48l-.29-.13c.38-.75.88-1.42,1.47-2.01.6-.59,1.21-.88,1.84-.88.35,0,.61.07.77.22s.25.41.25.77c0,.28-.05.65-.16,1.1l-2.29,9.59c-.09.44-.13.74-.13.92ZM378.77,185.36c-.17-.21-.25-.47-.25-.79,0-.46.16-.86.47-1.21.32-.35.66-.53,1.02-.53.28,0,.5.1.67.32.17.21.25.47.25.79,0,.46-.16.86-.47,1.21-.32.35-.66.53-1.02.53-.28,0-.5-.1-.67-.32Z"></path></svg>